{
  "accessors": [
    {
      "bufferView": 1,
      "componentType": 5126,
      "count": 15130,
      "max": [
        77.121330261230469,
        77.121330261230469,
        150
      ],
      "min": [
        -77.121330261230469,
        -77.121330261230469,
        0
      ],
      "type": "VEC3"
    },
    {
      "bufferView": 1,
      "byteOffset": 181560,
      "componentType": 5126,
      "count": 15130,
      "max": [
        1,
        1,
        1
      ],
      "min": [
        -1,
        -1,
        -1
      ],
      "type": "VEC3"
    },
    {
      "bufferView": 2,
      "componentType": 5126,
      "count": 15130,
      "max": [
        1,
        1,
        0.89684414863586426,
        1
      ],
      "min": [
        -1,
        -1,
        -0.89686274528503418,
        1
      ],
      "type": "VEC4"
    },
    {
      "bufferView": 0,
      "componentType": 5125,
      "count": 86016,
      "max": [
        15129
      ],
      "min": [
        0
      ],
      "type": "SCALAR"
    },
    {
      "bufferView": 1,
      "byteOffset": 363120,
      "componentType": 5126,
      "count": 45454,
      "max": [
        80.265121459960938,
        113.91900634765625,
        166.86192321777344
      ],
      "min": [
        -80.265098571777344,
        -113.91900634765625,
        -0.10284576565027237
      ],
      "type": "VEC3"
    },
    {
      "bufferView": 1,
      "byteOffset": 908568,
      "componentType": 5126,
      "count": 45454,
      "max": [
        1,
        1,
        1
      ],
      "min": [
        -1,
        -1,
        -1
      ],
      "type": "VEC3"
    },
    {
      "bufferView": 2,
      "byteOffset": 242080,
      "componentType": 5126,
      "count": 45454,
      "max": [
        1,
        1,
        1,
        1
      ],
      "min": [
        -1,
        -1,
        -1,
        -1
      ],
      "type": "VEC4"
    },
    {
      "bufferView": 0,
      "byteOffset": 344064,
      "componentType": 5125,
      "count": 264300,
      "max": [
        45453
      ],
      "min": [
        0
      ],
      "type": "SCALAR"
    }
  ],
  "asset": {
    "extras": {
      "author": "Neo_minigan (https://sketchfab.com/neominigan)",
      "license": "CC-BY-4.0 (http://creativecommons.org/licenses/by/4.0/)",
      "source": "https://sketchfab.com/models/d58718e65dff4ba2be87522d65ac5373",
      "title": "Gift"
    },
    "generator": "Sketchfab-3.18.6",
    "version": "2.0"
  },
  "bufferViews": [
    {
      "buffer": 0,
      "byteLength": 1401264,
      "byteOffset": 0,
      "name": "floatBufferViews",
      "target": 34963
    },
    {
      "buffer": 0,
      "byteLength": 1454016,
      "byteOffset": 1401264,
      "byteStride": 12,
      "name": "floatBufferViews",
      "target": 34962
    },
    {
      "buffer": 0,
      "byteLength": 969344,
      "byteOffset": 2855280,
      "byteStride": 16,
      "name": "floatBufferViews",
      "target": 34962
    }
  ],
  "buffers": [
    {
      "byteLength": 3824624,
      "uri": "scene.bin"
    }
  ],
  "materials": [
    {
      "doubleSided": true,
      "emissiveFactor": [
        0,
        0,
        0
      ],
      "name": "giftbox",
      "pbrMetallicRoughness": {
        "baseColorFactor": [
          0.36926983470000002,
          0,
          0,
          1
        ],
        "metallicFactor": 0,
        "roughnessFactor": 0.10000000000000001
      }
    },
    {
      "doubleSided": true,
      "emissiveFactor": [
        0,
        0,
        0
      ],
      "name": "giftbox_tape",
      "pbrMetallicRoughness": {
        "baseColorFactor": [
          0.78391446529999997,
          0,
          0,
          1
        ],
        "metallicFactor": 0,
        "roughnessFactor": 0.029999999999999999
      }
    }
  ],
  "meshes": [
    {
      "name": "Box001_giftbox_0",
      "primitives": [
        {
          "attributes": {
            "NORMAL": 1,
            "POSITION": 0,
            "TANGENT": 2
          },
          "indices": 3,
          "material": 0,
          "mode": 4
        }
      ]
    },
    {
      "name": "Box001_giftbox tape_0",
      "primitives": [
        {
          "attributes": {
            "NORMAL": 5,
            "POSITION": 4,
            "TANGENT": 6
          },
          "indices": 7,
          "material": 1,
          "mode": 4
        }
      ]
    }
  ],
  "nodes": [
    {
      "children": [
        1
      ],
      "name": "RootNode (gltf orientation matrix)",
      "rotation": [
        -0.70710678118654746,
        -0,
        -0,
        0.70710678118654757
      ]
    },
    {
      "children": [
        2
      ],
      "name": "RootNode (model correction matrix)"
    },
    {
      "children": [
        3
      ],
      "matrix": [
        1,
        0,
        0,
        0,
        0,
        0,
        1,
        0,
        0,
        -1,
        0,
        0,
        0,
        0,
        0,
        1
      ],
      "name": "0ee140c6240645f49c5eceeefbf0a567.fbx"
    },
    {
      "children": [
        4
      ],
      "name": "RootNode"
    },
    {
      "children": [
        5,
        6
      ],
      "matrix": [
        1,
        0,
        0,
        0,
        0,
        2.2204460492503131e-16,
        -1,
        0,
        0,
        1,
        2.2204460492503131e-16,
        0,
        -1.1444091796875e-05,
        5.773681640625,
        0,
        1
      ],
      "name": "Box001"
    },
    {
      "mesh": 0,
      "name": "Box001_giftbox_0"
    },
    {
      "mesh": 1,
      "name": "Box001_giftbox tape_0"
    }
  ],
  "scene": 0,
  "scenes": [
    {
      "name": "OSG_Scene",
      "nodes": [
        0
      ]
    }
  ]
}

