{"accessors" : [{"bufferView" : 0, "byteOffset" : 0, "componentType" : 5123, "count" : 15060, "type" : "SCALAR", "max" : [15059], "min" : [0]}, {"bufferView" : 1, "byteOffset" : 0, "componentType" : 5126, "count" : 15060, "type" : "VEC3", "max" : [-0.016961809247732162, 0.015278030186891556, 0.34338170289993286], "min" : [-0.034899141639471054, 0.011049999855458736, 0.3254443109035492]}, {"bufferView" : 1, "byteOffset" : 12, "componentType" : 5126, "count" : 15060, "type" : "VEC3", "max" : [1.0000044107437134, 1.0000044107437134, 1.0000044107437134], "min" : [-1.0000044107437134, -1.0000044107437134, -1.0000044107437134]}, {"bufferView" : 1, "byteOffset" : 24, "componentType" : 5126, "count" : 15060, "type" : "VEC2", "max" : [49.72138977050781, 1], "min" : [0, -47.86355972290039]}, {"bufferView" : 0, "byteOffset" : 30120, "componentType" : 5123, "count" : 15360, "type" : "SCALAR", "max" : [15359], "min" : [0]}, {"bufferView" : 2, "byteOffset" : 0, "componentType" : 5126, "count" : 15360, "type" : "VEC3", "max" : [-0.036492910236120224, 0.014550000429153442, 0.3009803891181946], "min" : [-0.05726135894656181, 0.011300000362098217, 0.2955803871154785]}, {"bufferView" : 2, "byteOffset" : 12, "componentType" : 5126, "count" : 15360, "type" : "VEC3", "max" : [0.9998880624771118, 1.0000044107437134, 1.0000044107437134], "min" : [-0.9998880624771118, -1.0000044107437134, -1.0000044107437134]}, {"bufferView" : 2, "byteOffset" : 24, "componentType" : 5126, "count" : 15360, "type" : "VEC2", "max" : [45.29423904418945, 1], "min" : [-0.5961654782295227, -13.17197036743164]}, {"bufferView" : 0, "byteOffset" : 60840, "componentType" : 5123, "count" : 480, "type" : "SCALAR", "max" : [479], "min" : [0]}, {"bufferView" : 3, "byteOffset" : 0, "componentType" : 5126, "count" : 480, "type" : "VEC3", "max" : [-0.08579190075397491, 0.015250000171363354, 0.3547295033931732], "min" : [-0.08773001283407211, 0.013749999925494194, 0.34758010506629944]}, {"bufferView" : 3, "byteOffset" : 12, "componentType" : 5126, "count" : 480, "type" : "VEC3", "max" : [1.0000044107437134, 1.0000044107437134, 1.0000044107437134], "min" : [-1.0000044107437134, -1.0000044107437134, -1.0000044107437134]}, {"bufferView" : 3, "byteOffset" : 24, "componentType" : 5126, "count" : 480, "type" : "VEC2", "max" : [13.858139991760254, 1], "min" : [0, -12.363980293273926]}, {"bufferView" : 0, "byteOffset" : 61800, "componentType" : 5123, "count" : 31296, "type" : "SCALAR", "max" : [31295], "min" : [0]}, {"bufferView" : 4, "byteOffset" : 0, "componentType" : 5126, "count" : 31296, "type" : "VEC3", "max" : [-0.04452216997742653, 0.015049999579787254, 0.35505160689353943], "min" : [-0.04923209920525551, 0.011300000362098217, 0.3503411114215851]}, {"bufferView" : 4, "byteOffset" : 12, "componentType" : 5126, "count" : 31296, "type" : "VEC3", "max" : [1.0000044107437134, 1.0000044107437134, 1.0000044107437134], "min" : [-1.0000044107437134, -1.0000044107437134, -1.0000044107437134]}, {"bufferView" : 4, "byteOffset" : 24, "componentType" : 5126, "count" : 31296, "type" : "VEC2", "max" : [41.880889892578125, 1], "min" : [-0.5928453207015991, -13.098079681396484]}, {"bufferView" : 0, "byteOffset" : 124392, "componentType" : 5125, "count" : 179190, "type" : "SCALAR", "max" : [179189], "min" : [0]}, {"bufferView" : 5, "byteOffset" : 0, "componentType" : 5126, "count" : 179190, "type" : "VEC3", "max" : [-0.0052940319292247295, 0.024498440325260162, 0.37279829382896423], "min" : [-0.08846023678779602, 0.000299998588161543, 0.28819870948791504]}, {"bufferView" : 5, "byteOffset" : 12, "componentType" : 5126, "count" : 179190, "type" : "VEC3", "max" : [1.0000044107437134, 1.0000044107437134, 1.0000044107437134], "min" : [-1.0000044107437134, -1.0000044107437134, -1.0000044107437134]}, {"bufferView" : 5, "byteOffset" : 24, "componentType" : 5126, "count" : 179190, "type" : "VEC2", "max" : [110.17230224609375, 1], "min" : [-0.6782565116882324, -155.83200073242188]}, {"bufferView" : 0, "byteOffset" : 841152, "componentType" : 5123, "count" : 13002, "type" : "SCALAR", "max" : [13001], "min" : [0]}, {"bufferView" : 6, "byteOffset" : 0, "componentType" : 5126, "count" : 13002, "type" : "VEC3", "max" : [-0.0060256351716816425, 0.022918689996004105, 0.37261441349983215], "min" : [-0.08772864192724228, 0.003239142009988427, 0.3603894114494324]}, {"bufferView" : 6, "byteOffset" : 12, "componentType" : 5126, "count" : 13002, "type" : "VEC3", "max" : [1.0000044107437134, 1.0000044107437134, 1.0000044107437134], "min" : [-1.0000044107437134, -1.0000044107437134, -1.0000044107437134]}, {"bufferView" : 6, "byteOffset" : 24, "componentType" : 5126, "count" : 13002, "type" : "VEC2", "max" : [0.9998465776443481, 0.6202446222305298], "min" : [0.00015339259698521346, 0.37956660985946655]}, {"bufferView" : 0, "byteOffset" : 867156, "componentType" : 5123, "count" : 16980, "type" : "SCALAR", "max" : [16979], "min" : [0]}, {"bufferView" : 7, "byteOffset" : 0, "componentType" : 5126, "count" : 16980, "type" : "VEC3", "max" : [-0.05617646127939224, 0.015300000086426735, 0.34119489789009094], "min" : [-0.07771018147468567, 0.011300000362098217, 0.3285808861255646]}, {"bufferView" : 7, "byteOffset" : 12, "componentType" : 5126, "count" : 16980, "type" : "VEC3", "max" : [1.0000044107437134, 1.0000044107437134, 1.0000044107437134], "min" : [-1.0000044107437134, -1.0000044107437134, -1.0000044107437134]}, {"bufferView" : 7, "byteOffset" : 24, "componentType" : 5126, "count" : 16980, "type" : "VEC2", "max" : [46.307220458984375, 1], "min" : [-0.5971503853797913, -13.469120025634766]}, {"bufferView" : 0, "byteOffset" : 901116, "componentType" : 5123, "count" : 22008, "type" : "SCALAR", "max" : [22007], "min" : [0]}, {"bufferView" : 8, "byteOffset" : 0, "componentType" : 5126, "count" : 22008, "type" : "VEC3", "max" : [-0.006427139043807983, 0.012232350185513496, 0.3718894124031067], "min" : [-0.08761274814605713, 0.0015876659890636802, 0.30646631121635437]}, {"bufferView" : 8, "byteOffset" : 12, "componentType" : 5126, "count" : 22008, "type" : "VEC3", "max" : [1.0000044107437134, 1.0000044107437134, 1.0000044107437134], "min" : [-1.0000044107437134, -1.0000044107437134, -1.0000044107437134]}, {"bufferView" : 8, "byteOffset" : 24, "componentType" : 5126, "count" : 22008, "type" : "VEC2", "max" : [19.565370559692383, 1], "min" : [-0.045223020017147064, -17.515399932861328]}, {"bufferView" : 0, "byteOffset" : 945132, "componentType" : 5123, "count" : 222, "type" : "SCALAR", "max" : [221], "min" : [0]}, {"bufferView" : 9, "byteOffset" : 0, "componentType" : 5126, "count" : 222, "type" : "VEC3", "max" : [-0.017627129331231117, 0.01054999977350235, 0.37261441349983215], "min" : [-0.07612712681293488, 0.0017980519914999604, 0.2955479025840759]}, {"bufferView" : 9, "byteOffset" : 12, "componentType" : 5126, "count" : 222, "type" : "VEC3", "max" : [1.0000044107437134, 1.0000044107437134, 1.0000044107437134], "min" : [-1.0000044107437134, -1.0000044107437134, -1.0000044107437134]}, {"bufferView" : 9, "byteOffset" : 24, "componentType" : 5126, "count" : 222, "type" : "VEC2", "max" : [1, 1], "min" : [0, 0.4432182013988495]}, {"bufferView" : 0, "byteOffset" : 945576, "componentType" : 5123, "count" : 408, "type" : "SCALAR", "max" : [407], "min" : [0]}, {"bufferView" : 10, "byteOffset" : 0, "componentType" : 5126, "count" : 408, "type" : "VEC3", "max" : [-0.01011716015636921, 0.0007999985828064382, 0.3262071907520294], "min" : [-0.08363711833953857, 0.0005999989807605743, 0.30118438601493835]}, {"bufferView" : 10, "byteOffset" : 12, "componentType" : 5126, "count" : 408, "type" : "VEC3", "max" : [1.0000044107437134, 1.0000044107437134, 1.0000044107437134], "min" : [-1.0000044107437134, 0, -1.0000044107437134]}, {"bufferView" : 10, "byteOffset" : 24, "componentType" : 5126, "count" : 408, "type" : "VEC2", "max" : [20.58293914794922, 1], "min" : [0, -18.93902015686035]}, {"bufferView" : 0, "byteOffset" : 946392, "componentType" : 5123, "count" : 132, "type" : "SCALAR", "max" : [131], "min" : [0]}, {"bufferView" : 11, "byteOffset" : 0, "componentType" : 5126, "count" : 132, "type" : "VEC3", "max" : [-0.01011716015636921, 0.0005999989807605743, 0.3262071907520294], "min" : [-0.08363711833953857, 0.0005999989807605743, 0.30118438601493835]}, {"bufferView" : 11, "byteOffset" : 12, "componentType" : 5126, "count" : 132, "type" : "VEC3", "max" : [0, -1.0000044107437134, 0], "min" : [0, -1.0000044107437134, 0]}, {"bufferView" : 11, "byteOffset" : 24, "componentType" : 5126, "count" : 132, "type" : "VEC2", "max" : [20.58293914794922, 1], "min" : [0, -6.005496025085449]}, {"bufferView" : 0, "byteOffset" : 946656, "componentType" : 5123, "count" : 25644, "type" : "SCALAR", "max" : [25643], "min" : [0]}, {"bufferView" : 12, "byteOffset" : 0, "componentType" : 5126, "count" : 25644, "type" : "VEC3", "max" : [-0.010365219786763191, 0.01054999977350235, 0.37263938784599304], "min" : [-0.08334612846374512, 0.0006999988108873367, 0.29121631383895874]}, {"bufferView" : 12, "byteOffset" : 12, "componentType" : 5126, "count" : 25644, "type" : "VEC3", "max" : [1.0000044107437134, 1.0000044107437134, 1.0000044107437134], "min" : [-1.0000044107437134, -1.0000044107437134, -1.0000044107437134]}, {"bufferView" : 12, "byteOffset" : 24, "componentType" : 5126, "count" : 25644, "type" : "VEC2", "max" : [0.9998844265937805, 1], "min" : [0.00011557339894352481, 0.00011557339894352481]}, {"bufferView" : 0, "byteOffset" : 997944, "componentType" : 5123, "count" : 7374, "type" : "SCALAR", "max" : [7373], "min" : [0]}, {"bufferView" : 13, "byteOffset" : 0, "componentType" : 5126, "count" : 7374, "type" : "VEC3", "max" : [-0.0057541062124073505, 0.01054999977350235, 0.37334561347961426], "min" : [-0.08800017088651657, 0.0005499991239048541, 0.3632960021495819]}, {"bufferView" : 13, "byteOffset" : 12, "componentType" : 5126, "count" : 7374, "type" : "VEC3", "max" : [1.0000044107437134, 1.0000044107437134, 1.0000044107437134], "min" : [-1.0000044107437134, -1.0000044107437134, -1.0000044107437134]}, {"bufferView" : 13, "byteOffset" : 24, "componentType" : 5126, "count" : 7374, "type" : "VEC2", "max" : [2.7125399112701416, 1], "min" : [0, -1.7125400304794312]}, {"bufferView" : 0, "byteOffset" : 1012692, "componentType" : 5123, "count" : 540, "type" : "SCALAR", "max" : [539], "min" : [0]}, {"bufferView" : 14, "byteOffset" : 0, "componentType" : 5126, "count" : 540, "type" : "VEC3", "max" : [-0.035244170576334, 0.08279728889465332, 0.4114095866680145], "min" : [-0.05851846933364868, 0.0780353769659996, 0.40838420391082764]}, {"bufferView" : 14, "byteOffset" : 12, "componentType" : 5126, "count" : 540, "type" : "VEC3", "max" : [1.0000044107437134, 0.8548563122749329, 0.8548563122749329], "min" : [-1.0000044107437134, -0.8548563122749329, -0.8548563122749329]}, {"bufferView" : 14, "byteOffset" : 24, "componentType" : 5126, "count" : 540, "type" : "VEC2", "max" : [0.9581553936004639, 0.6066673994064331], "min" : [0.04184461012482643, 0.39333251118659973]}, {"bufferView" : 0, "byteOffset" : 1013772, "componentType" : 5123, "count" : 36, "type" : "SCALAR", "max" : [35], "min" : [0]}, {"bufferView" : 15, "byteOffset" : 0, "componentType" : 5126, "count" : 36, "type" : "VEC3", "max" : [-0.009841307997703552, 0.08376642316579819, 0.40393969416618347], "min" : [-0.08392134308815002, 0.03413283824920654, 0.37330061197280884]}, {"bufferView" : 15, "byteOffset" : 12, "componentType" : 5126, "count" : 36, "type" : "VEC3", "max" : [1.0000044107437134, 0.8548563122749329, 0.8548563122749329], "min" : [-1.0000044107437134, -0.8548563122749329, -0.8548563122749329]}, {"bufferView" : 15, "byteOffset" : 24, "componentType" : 5126, "count" : 36, "type" : "VEC2", "max" : [8.68904972076416, 1], "min" : [0, -5.742496967315674]}, {"bufferView" : 0, "byteOffset" : 1013844, "componentType" : 5123, "count" : 23256, "type" : "SCALAR", "max" : [23255], "min" : [0]}, {"bufferView" : 16, "byteOffset" : 0, "componentType" : 5126, "count" : 23256, "type" : "VEC3", "max" : [-0.009331639856100082, 0.08955355733633041, 0.40716490149497986], "min" : [-0.0844310075044632, 0.02842422015964985, 0.3690235912799835]}, {"bufferView" : 16, "byteOffset" : 12, "componentType" : 5126, "count" : 23256, "type" : "VEC3", "max" : [0.9998924732208252, 0.8575024604797363, 0.8548563122749329], "min" : [-0.9998924732208252, -0.8548563122749329, -0.998056173324585]}, {"bufferView" : 16, "byteOffset" : 24, "componentType" : 5126, "count" : 23256, "type" : "VEC2", "max" : [35.598899841308594, 1], "min" : [-0.0994093269109726, -6.507699966430664]}, {"bufferView" : 0, "byteOffset" : 1060356, "componentType" : 5123, "count" : 37632, "type" : "SCALAR", "max" : [37631], "min" : [0]}, {"bufferView" : 17, "byteOffset" : 0, "componentType" : 5126, "count" : 37632, "type" : "VEC3", "max" : [-0.00583878206089139, 0.09070888161659241, 0.41346991062164307], "min" : [-0.08792386204004288, 0.015803150832653046, 0.3640249967575073]}, {"bufferView" : 17, "byteOffset" : 12, "componentType" : 5126, "count" : 37632, "type" : "VEC3", "max" : [1.0000044107437134, 0.9999952912330627, 0.9997638463973999], "min" : [-1.0000044107437134, -0.9999513626098633, -0.9998116493225098]}, {"bufferView" : 17, "byteOffset" : 24, "componentType" : 5126, "count" : 37632, "type" : "VEC2", "max" : [10.973099708557129, 1], "min" : [-0.18546530604362488, -5.799461841583252]}, {"bufferView" : 0, "byteOffset" : 1135620, "componentType" : 5123, "count" : 6, "type" : "SCALAR", "max" : [5], "min" : [0]}, {"bufferView" : 18, "byteOffset" : 0, "componentType" : 5126, "count" : 6, "type" : "VEC3", "max" : [-0.009841307997703552, 0.08275461941957474, 0.4047946035861969], "min" : [-0.08392134308815002, 0.033613961189985275, 0.3749676048755646]}, {"bufferView" : 18, "byteOffset" : 12, "componentType" : 5126, "count" : 6, "type" : "VEC3", "max" : [-1.111196847816703E-16, 0.5188731551170349, -0.8548563122749329], "min" : [-1.111196847816703E-16, 0.5188731551170349, -0.8548563122749329]}, {"bufferView" : 18, "byteOffset" : 24, "componentType" : 5126, "count" : 6, "type" : "VEC2", "max" : [6.8905110359191895, 1], "min" : [0, -4.346875190734863]}, {"bufferView" : 0, "byteOffset" : 1135632, "componentType" : 5123, "count" : 36, "type" : "SCALAR", "max" : [35], "min" : [0]}, {"bufferView" : 19, "byteOffset" : 0, "componentType" : 5126, "count" : 36, "type" : "VEC3", "max" : [-0.009841307997703552, 0.08301406353712082, 0.4047946035861969], "min" : [-0.08392134308815002, 0.033613961189985275, 0.37454020977020264]}, {"bufferView" : 19, "byteOffset" : 12, "componentType" : 5126, "count" : 36, "type" : "VEC3", "max" : [1.0000044107437134, 0.8548563122749329, 0.8548563122749329], "min" : [-1.0000044107437134, -0.8548563122749329, -0.8548563122749329]}, {"bufferView" : 19, "byteOffset" : 24, "componentType" : 5126, "count" : 36, "type" : "VEC2", "max" : [8.689371109008789, 1], "min" : [0, -5.742747783660889]}], "asset" : {"generator" : "Aspose.3D 21.1", "version" : "2.0"}, "buffers" : [{"uri" : "buffer.bin", "byteLength" : 13572968}], "bufferViews" : [{"buffer" : 0, "byteOffset" : 0, "byteLength" : 1135704, "target" : 34963}, {"buffer" : 0, "byteOffset" : 1135708, "byteLength" : 481920, "byteStride" : 32, "target" : 34962}, {"buffer" : 0, "byteOffset" : 1617632, "byteLength" : 491520, "byteStride" : 32, "target" : 34962}, {"buffer" : 0, "byteOffset" : 2109156, "byteLength" : 15360, "byteStride" : 32, "target" : 34962}, {"buffer" : 0, "byteOffset" : 2124520, "byteLength" : 1001472, "byteStride" : 32, "target" : 34962}, {"buffer" : 0, "byteOffset" : 3125996, "byteLength" : 5734080, "byteStride" : 32, "target" : 34962}, {"buffer" : 0, "byteOffset" : 8860080, "byteLength" : 416064, "byteStride" : 32, "target" : 34962}, {"buffer" : 0, "byteOffset" : 9276148, "byteLength" : 543360, "byteStride" : 32, "target" : 34962}, {"buffer" : 0, "byteOffset" : 9819512, "byteLength" : 704256, "byteStride" : 32, "target" : 34962}, {"buffer" : 0, "byteOffset" : 10523772, "byteLength" : 7104, "byteStride" : 32, "target" : 34962}, {"buffer" : 0, "byteOffset" : 10530880, "byteLength" : 13056, "byteStride" : 32, "target" : 34962}, {"buffer" : 0, "byteOffset" : 10543940, "byteLength" : 4224, "byteStride" : 32, "target" : 34962}, {"buffer" : 0, "byteOffset" : 10548168, "byteLength" : 820608, "byteStride" : 32, "target" : 34962}, {"buffer" : 0, "byteOffset" : 11368780, "byteLength" : 235968, "byteStride" : 32, "target" : 34962}, {"buffer" : 0, "byteOffset" : 11604752, "byteLength" : 17280, "byteStride" : 32, "target" : 34962}, {"buffer" : 0, "byteOffset" : 11622036, "byteLength" : 1152, "byteStride" : 32, "target" : 34962}, {"buffer" : 0, "byteOffset" : 11623192, "byteLength" : 744192, "byteStride" : 32, "target" : 34962}, {"buffer" : 0, "byteOffset" : 12367388, "byteLength" : 1204224, "byteStride" : 32, "target" : 34962}, {"buffer" : 0, "byteOffset" : 13571616, "byteLength" : 192, "byteStride" : 32, "target" : 34962}, {"buffer" : 0, "byteOffset" : 13571812, "byteLength" : 1152, "byteStride" : 32, "target" : 34962}], "materials" : [{"pbrMetallicRoughness" : {"baseColorFactor" : [1, 1, 1, 1], "metallicFactor" : 0.5, "roughnessFactor" : 0.5}, "emissiveFactor" : [0, 0, 0], "alphaMode" : "OPAQUE", "doubleSided" : false}, {"pbrMetallicRoughness" : {"baseColorFactor" : [1, 1, 1, 1], "metallicFactor" : 0.5, "roughnessFactor" : 0.5}, "emissiveFactor" : [0, 0, 0], "alphaMode" : "OPAQUE", "doubleSided" : false}, {"pbrMetallicRoughness" : {"baseColorFactor" : [1, 1, 1, 1], "metallicFactor" : 0.5, "roughnessFactor" : 0.5}, "emissiveFactor" : [0, 0, 0], "alphaMode" : "OPAQUE", "doubleSided" : false}, {"pbrMetallicRoughness" : {"baseColorFactor" : [1, 1, 1, 1], "metallicFactor" : 0.5, "roughnessFactor" : 0.5}, "emissiveFactor" : [0, 0, 0], "alphaMode" : "OPAQUE", "doubleSided" : false}, {"pbrMetallicRoughness" : {"baseColorFactor" : [1, 1, 1, 1], "metallicFactor" : 0.5, "roughnessFactor" : 0.5}, "emissiveFactor" : [0, 0, 0], "alphaMode" : "OPAQUE", "doubleSided" : false}, {"pbrMetallicRoughness" : {"baseColorFactor" : [1, 1, 1, 1], "metallicFactor" : 0.5, "roughnessFactor" : 0.5}, "emissiveFactor" : [0, 0, 0], "alphaMode" : "OPAQUE", "doubleSided" : false}, {"pbrMetallicRoughness" : {"baseColorFactor" : [1, 1, 1, 1], "metallicFactor" : 0.5, "roughnessFactor" : 0.5}, "emissiveFactor" : [0, 0, 0], "alphaMode" : "OPAQUE", "doubleSided" : false}, {"pbrMetallicRoughness" : {"baseColorFactor" : [1, 1, 1, 1], "metallicFactor" : 0.5, "roughnessFactor" : 0.5}, "emissiveFactor" : [0, 0, 0], "alphaMode" : "OPAQUE", "doubleSided" : false}, {"pbrMetallicRoughness" : {"baseColorFactor" : [1, 1, 1, 1], "metallicFactor" : 0.5, "roughnessFactor" : 0.5}, "emissiveFactor" : [0, 0, 0], "alphaMode" : "OPAQUE", "doubleSided" : false}, {"pbrMetallicRoughness" : {"baseColorFactor" : [1, 1, 1, 1], "metallicFactor" : 0.5, "roughnessFactor" : 0.5}, "emissiveFactor" : [0, 0, 0], "alphaMode" : "OPAQUE", "doubleSided" : false}, {"pbrMetallicRoughness" : {"baseColorFactor" : [1, 1, 1, 1], "metallicFactor" : 0.5, "roughnessFactor" : 0.5}, "emissiveFactor" : [0, 0, 0], "alphaMode" : "OPAQUE", "doubleSided" : false}, {"pbrMetallicRoughness" : {"baseColorFactor" : [1, 1, 1, 1], "metallicFactor" : 0.5, "roughnessFactor" : 0.5}, "emissiveFactor" : [0, 0, 0], "alphaMode" : "OPAQUE", "doubleSided" : false}, {"pbrMetallicRoughness" : {"baseColorFactor" : [1, 1, 1, 1], "metallicFactor" : 0.5, "roughnessFactor" : 0.5}, "emissiveFactor" : [0, 0, 0], "alphaMode" : "OPAQUE", "doubleSided" : false}, {"pbrMetallicRoughness" : {"baseColorFactor" : [1, 1, 1, 1], "metallicFactor" : 0.5, "roughnessFactor" : 0.5}, "emissiveFactor" : [0, 0, 0], "alphaMode" : "OPAQUE", "doubleSided" : false}, {"pbrMetallicRoughness" : {"baseColorFactor" : [1, 1, 1, 1], "metallicFactor" : 0.5, "roughnessFactor" : 0.5}, "emissiveFactor" : [0, 0, 0], "alphaMode" : "OPAQUE", "doubleSided" : false}, {"pbrMetallicRoughness" : {"baseColorFactor" : [1, 1, 1, 1], "metallicFactor" : 0.5, "roughnessFactor" : 0.5}, "emissiveFactor" : [0, 0, 0], "alphaMode" : "OPAQUE", "doubleSided" : false}, {"pbrMetallicRoughness" : {"baseColorFactor" : [1, 1, 1, 1], "metallicFactor" : 0.5, "roughnessFactor" : 0.5}, "emissiveFactor" : [0, 0, 0], "alphaMode" : "OPAQUE", "doubleSided" : false}, {"pbrMetallicRoughness" : {"baseColorFactor" : [1, 1, 1, 1], "metallicFactor" : 0.5, "roughnessFactor" : 0.5}, "emissiveFactor" : [0, 0, 0], "alphaMode" : "OPAQUE", "doubleSided" : false}, {"pbrMetallicRoughness" : {"baseColorFactor" : [1, 1, 1, 1], "metallicFactor" : 0.5, "roughnessFactor" : 0.5}, "emissiveFactor" : [0, 0, 0], "alphaMode" : "OPAQUE", "doubleSided" : false}], "meshes" : [{"primitives" : [{"attributes" : {"POSITION" : 1, "NORMAL" : 2, "TEXCOORD_0" : 3}, "indices" : 0, "material" : 0, "mode" : 4}]}, {"primitives" : [{"attributes" : {"POSITION" : 5, "NORMAL" : 6, "TEXCOORD_0" : 7}, "indices" : 4, "material" : 1, "mode" : 4}]}, {"primitives" : [{"attributes" : {"POSITION" : 9, "NORMAL" : 10, "TEXCOORD_0" : 11}, "indices" : 8, "material" : 2, "mode" : 4}]}, {"primitives" : [{"attributes" : {"POSITION" : 13, "NORMAL" : 14, "TEXCOORD_0" : 15}, "indices" : 12, "material" : 3, "mode" : 4}]}, {"primitives" : [{"attributes" : {"POSITION" : 17, "NORMAL" : 18, "TEXCOORD_0" : 19}, "indices" : 16, "material" : 4, "mode" : 4}]}, {"primitives" : [{"attributes" : {"POSITION" : 21, "NORMAL" : 22, "TEXCOORD_0" : 23}, "indices" : 20, "material" : 5, "mode" : 4}]}, {"primitives" : [{"attributes" : {"POSITION" : 25, "NORMAL" : 26, "TEXCOORD_0" : 27}, "indices" : 24, "material" : 6, "mode" : 4}]}, {"primitives" : [{"attributes" : {"POSITION" : 29, "NORMAL" : 30, "TEXCOORD_0" : 31}, "indices" : 28, "material" : 7, "mode" : 4}]}, {"primitives" : [{"attributes" : {"POSITION" : 33, "NORMAL" : 34, "TEXCOORD_0" : 35}, "indices" : 32, "material" : 8, "mode" : 4}]}, {"primitives" : [{"attributes" : {"POSITION" : 37, "NORMAL" : 38, "TEXCOORD_0" : 39}, "indices" : 36, "material" : 9, "mode" : 4}]}, {"primitives" : [{"attributes" : {"POSITION" : 41, "NORMAL" : 42, "TEXCOORD_0" : 43}, "indices" : 40, "material" : 10, "mode" : 4}]}, {"primitives" : [{"attributes" : {"POSITION" : 45, "NORMAL" : 46, "TEXCOORD_0" : 47}, "indices" : 44, "material" : 11, "mode" : 4}]}, {"primitives" : [{"attributes" : {"POSITION" : 49, "NORMAL" : 50, "TEXCOORD_0" : 51}, "indices" : 48, "material" : 12, "mode" : 4}]}, {"primitives" : [{"attributes" : {"POSITION" : 53, "NORMAL" : 54, "TEXCOORD_0" : 55}, "indices" : 52, "material" : 13, "mode" : 4}]}, {"primitives" : [{"attributes" : {"POSITION" : 57, "NORMAL" : 58, "TEXCOORD_0" : 59}, "indices" : 56, "material" : 14, "mode" : 4}]}, {"primitives" : [{"attributes" : {"POSITION" : 61, "NORMAL" : 62, "TEXCOORD_0" : 63}, "indices" : 60, "material" : 15, "mode" : 4}]}, {"primitives" : [{"attributes" : {"POSITION" : 65, "NORMAL" : 66, "TEXCOORD_0" : 67}, "indices" : 64, "material" : 16, "mode" : 4}]}, {"primitives" : [{"attributes" : {"POSITION" : 69, "NORMAL" : 70, "TEXCOORD_0" : 71}, "indices" : 68, "material" : 17, "mode" : 4}]}, {"primitives" : [{"attributes" : {"POSITION" : 73, "NORMAL" : 74, "TEXCOORD_0" : 75}, "indices" : 72, "material" : 18, "mode" : 4}]}], "nodes" : [{"mesh" : 0, "name" : "|GBA_SP|Root|PIEZA_INFERIOR-1|red_soft_touch_plastic"}, {"mesh" : 1, "name" : "|GBA_SP|Root|PIEZA_INFERIOR-1|blue_soft_touch_plastic"}, {"mesh" : 2, "name" : "|GBA_SP|Root|PIEZA_INFERIOR-1|polypropylene"}, {"mesh" : 3, "name" : "|GBA_SP|Root|PIEZA_INFERIOR-1|white_soft_touch_plastic"}, {"mesh" : 4, "name" : "|GBA_SP|Root|PIEZA_INFERIOR-1|matte_aluminum"}, {"mesh" : 5, "name" : "|GBA_SP|Root|PIEZA_INFERIOR-1|satin_finish_gold"}, {"mesh" : 6, "name" : "|GBA_SP|Root|PIEZA_INFERIOR-1|green_soft_touch_plastic"}, {"mesh" : 7, "name" : "|GBA_SP|Root|PIEZA_INFERIOR-1|black_low_gloss_plastic"}, {"mesh" : 8, "name" : "|GBA_SP|Root|PIEZA_INFERIOR-1|polished_steel"}, {"mesh" : 9, "name" : "|GBA_SP|Root|PIEZA_INFERIOR-1|white_soft_touch_plastic-2"}, {"mesh" : 10, "name" : "|GBA_SP|Root|PIEZA_INFERIOR-1|black_soft_touch_plastic"}, {"mesh" : 11, "name" : "|GBA_SP|Root|PIEZA_INFERIOR-1|polished_aluminum"}, {"mesh" : 12, "name" : "|GBA_SP|Root|PIEZA_INFERIOR-1|light_grey_low_gloss_plastic"}, {"mesh" : 13, "name" : "|GBA_SP|Root|PIEZA_SUPERIOR-1|brushed_chromium"}, {"mesh" : 14, "name" : "|GBA_SP|Root|PIEZA_SUPERIOR-1|clear_glass"}, {"mesh" : 15, "name" : "|GBA_SP|Root|PIEZA_SUPERIOR-1|yellow_soft_touch_plastic"}, {"mesh" : 16, "name" : "|GBA_SP|Root|PIEZA_SUPERIOR-1|matte_aluminum-2"}, {"mesh" : 17, "name" : "|GBA_SP|Root|PIEZA_SUPERIOR-1|dark_grey_soft_touch_plastic"}, {"mesh" : 18, "name" : "|GBA_SP|Root|PIEZA_SUPERIOR-1|black_low_gloss_plastic-2"}, {"children" : [0, 1, 2, 3, 4, 5, 6, 7, 8, 9, 10, 11, 12, 13, 14, 15, 16, 17, 18]}], "scene" : 0, "scenes" : [{"nodes" : [19]}]}